<svg width="14" height="14" viewBox="0 0 14 14" fill="none" xmlns="http://www.w3.org/2000/svg">
<path fill-rule="evenodd" clip-rule="evenodd" d="M0.644456 11.6467C0.253931 12.0372 0.253931 12.6703 0.644456 13.0609C1.03498 13.4514 1.66814 13.4514 2.05867 13.0609L6.85254 8.267L11.6467 13.0611C12.0372 13.4516 12.6703 13.4516 13.0609 13.0611C13.4514 12.6706 13.4514 12.0374 13.0609 11.6469L8.26675 6.85278L13.4124 1.70711C13.803 1.31658 13.803 0.683417 13.4124 0.292893C13.0219 -0.0976312 12.3887 -0.0976308 11.9982 0.292893L6.85254 5.43857L1.70711 0.293137C1.31658 -0.0973873 0.683418 -0.0973873 0.292893 0.293137C-0.0976311 0.683661 -0.0976311 1.31683 0.292893 1.70735L5.43833 6.85278L0.644456 11.6467Z" fill="#000033"/>
</svg>
