<svg width="753" height="476" viewBox="0 0 753 476" fill="none" xmlns="http://www.w3.org/2000/svg">
<g clip-path="url(#clip0_725_1897)">
<path d="M692.004 558H628.004V68.1875H64V558H0V4.1875H692.004V558Z" fill="#0A29CD"/>
<path d="M1066.95 0.00683594C1257.87 1.21613 1412.27 156.363 1412.27 347.572L1412.27 349.82C1411.77 427.577 1385.75 499.275 1342.15 556.953H1255.94C1312.68 505.101 1348.27 430.493 1348.27 347.572C1348.27 190.96 1221.31 64 1064.7 64C908.089 64 781.129 190.96 781.129 347.572C781.129 430.493 816.721 505.101 873.46 556.953H787.251C743.655 499.275 717.628 427.577 717.136 349.82L717.129 347.572C717.129 155.613 872.742 0 1064.7 0L1066.95 0.00683594Z" fill="#0A29CD"/>
<path d="M600.353 558H509.845L25.125 73.2812L70.3799 28.0264L600.353 558Z" fill="#0A29CD"/>
</g>
<defs>
<clipPath id="clip0_725_1897">
<rect width="753" height="476" fill="white"/>
</clipPath>
</defs>
</svg>
