<svg width="55" height="18" viewBox="0 0 55 18" fill="none" xmlns="http://www.w3.org/2000/svg">
<g clip-path="url(#clip0_725_1313)">
<path fill-rule="evenodd" clip-rule="evenodd" d="M0 0H17.3192V18H0V0ZM0.962175 1V17H16.357V1H0.962175Z" fill="#000033"/>
<path fill-rule="evenodd" clip-rule="evenodd" d="M0.140907 0.146447C0.328784 -0.0488155 0.633391 -0.0488155 0.821268 0.146447L17.1782 17.1464C17.3661 17.3417 17.3661 17.6583 17.1782 17.8536C16.9904 18.0488 16.6858 18.0488 16.4979 17.8536L0.140907 0.853553C-0.0469691 0.658291 -0.0469691 0.341709 0.140907 0.146447Z" fill="#000033"/>
<path fill-rule="evenodd" clip-rule="evenodd" d="M27.4648 1C23.2136 1 19.7674 4.58172 19.7674 9C19.7674 13.4183 23.2136 17 27.4648 17C31.7159 17 35.1622 13.4183 35.1622 9C35.1622 4.58172 31.7159 1 27.4648 1ZM18.8052 9C18.8052 4.02944 22.6822 0 27.4648 0C32.2473 0 36.1243 4.02944 36.1243 9C36.1243 13.9706 32.2473 18 27.4648 18C22.6822 18 18.8052 13.9706 18.8052 9Z" fill="#000033"/>
<path fill-rule="evenodd" clip-rule="evenodd" d="M19.2856 8.5H35.6426V9.5H19.2856V8.5Z" fill="#000033"/>
<path fill-rule="evenodd" clip-rule="evenodd" d="M46.2704 0.999512C42.0193 0.999512 38.573 4.58123 38.573 8.99951C38.573 13.4178 42.0193 16.9995 46.2704 16.9995C50.5216 16.9995 53.9678 13.4178 53.9678 8.99951C53.9678 4.58123 50.5216 0.999512 46.2704 0.999512ZM37.6108 8.99951C37.6108 4.02895 41.4879 -0.000488281 46.2704 -0.000488281C51.053 -0.000488281 54.93 4.02895 54.93 8.99951C54.93 13.9701 51.053 17.9995 46.2704 17.9995C41.4879 17.9995 37.6108 13.9701 37.6108 8.99951Z" fill="#000033"/>
</g>
<defs>
<clipPath id="clip0_725_1313">
<rect width="55" height="18" fill="white"/>
</clipPath>
</defs>
</svg>
