<svg width="25" height="28" viewBox="0 0 25 28" fill="none" xmlns="http://www.w3.org/2000/svg">
<path d="M23.5624 15.0941L21.8994 10.5719C21.5704 4.89777 16.8876 0.40055 11.1589 0.399902C5.21704 0.400661 0.400391 5.2401 0.400391 11.2103C0.401901 12.9069 0.785257 14.9163 1.70603 16.7751C2.57896 18.5387 3.95077 20.1691 5.939 21.1863V26.8526C5.939 26.9962 5.99714 27.1379 6.09808 27.2393C6.19977 27.3415 6.33997 27.3999 6.4837 27.3999H15.3407C15.4836 27.3999 15.6246 27.3415 15.7255 27.2393C15.8272 27.1379 15.8854 26.9962 15.8854 26.8526V23.6675H18.4779C20.0328 23.6675 21.2921 22.4014 21.2928 20.8391V17.9014L22.4774 17.462C23.2174 17.1861 23.6763 16.4827 23.6763 15.7326C23.6763 15.5198 23.6393 15.3033 23.5625 15.0939L23.5624 15.0941ZM22.0998 16.4352L20.5596 17.0065C20.3454 17.0862 20.2037 17.2903 20.2037 17.5202V20.8388C20.2021 21.7961 19.4309 22.5711 18.4782 22.5733H15.3409C15.1971 22.5733 15.0569 22.631 14.956 22.7332C14.8543 22.8354 14.7962 22.9763 14.7962 23.1207V26.3053H7.02886V20.8434C7.02886 20.6304 6.90476 20.4354 6.7122 20.3464C4.81529 19.4657 3.51752 17.9712 2.68105 16.287C1.84587 14.6063 1.48947 12.7406 1.48998 11.2104C1.48998 8.52583 2.57131 6.10029 4.32221 4.33992C6.07388 2.58135 8.48778 1.49481 11.1597 1.49403C16.3333 1.49327 20.5592 5.57901 20.8163 10.7116L20.8498 10.8742L22.541 15.4729C22.5722 15.5591 22.5868 15.6459 22.5876 15.7318C22.5871 16.0364 22.4011 16.3232 22.1005 16.4347L22.0998 16.4352Z" fill="#000033" stroke="#000033" stroke-width="0.8"/>
<path d="M6.39226 9.89967C6.39226 9.89967 6.39226 9.89967 6.39226 9.89967C6.39226 9.79851 6.39696 9.69846 6.40563 9.59957C6.41416 9.50224 6.37966 9.40539 6.30769 9.33931L5.72461 8.80399C5.52672 8.62232 5.44773 8.33932 5.55143 8.09151C5.65475 7.84464 5.90839 7.70467 6.17577 7.71603L6.66581 7.73684C6.95199 7.749 7.22108 7.6158 7.4237 7.41334C7.62624 7.21096 7.75927 6.94208 7.74717 6.65602L7.72701 6.17947C7.71556 5.90873 7.85785 5.65209 8.1084 5.54887C8.35755 5.44622 8.64113 5.52609 8.82349 5.72448L9.14706 6.0765C9.34098 6.28747 9.62539 6.38254 9.91194 6.38254C10.1985 6.38254 10.4829 6.28751 10.6769 6.07658L10.99 5.73613C11.1751 5.5349 11.4631 5.45449 11.7152 5.56033C11.9659 5.66561 12.1077 5.92352 12.0962 6.19521L12.0766 6.65581C12.0645 6.94206 12.1978 7.21112 12.4005 7.41364C12.603 7.61604 12.8719 7.74916 13.158 7.73704L13.6085 7.71796C13.8828 7.70635 14.143 7.84991 14.2482 8.1035C14.3532 8.35692 14.2718 8.64565 14.0697 8.8312L13.7378 9.13605C13.527 9.32958 13.4321 9.61354 13.4321 9.89967C13.4321 10.1862 13.5271 10.4705 13.7381 10.6642L14.0697 10.9688C14.2717 11.1543 14.3532 11.4429 14.2481 11.6963C14.1429 11.95 13.8825 12.0936 13.6081 12.082L13.1577 12.0629C12.8718 12.0507 12.6029 12.1839 12.4005 12.3863C12.1979 12.5889 12.0644 12.8579 12.0766 13.1443L12.0961 13.6048C12.1076 13.8765 11.9659 14.1344 11.7151 14.2396C11.463 14.3455 11.1749 14.2651 10.9898 14.0638L10.6766 13.7232C10.4828 13.5123 10.1984 13.4173 9.91194 13.4173C9.62543 13.4173 9.34094 13.5124 9.14705 13.7233L8.82345 14.0754C8.6411 14.2737 8.35757 14.3537 8.1084 14.2511C7.8578 14.1479 7.71556 13.8912 7.72701 13.6205L7.74717 13.1437C7.75927 12.8577 7.62619 12.5889 7.42368 12.3866C7.22105 12.1841 6.95194 12.0508 6.66575 12.063L6.17585 12.0839C5.90841 12.0953 5.65467 11.9554 5.55132 11.7085C5.44757 11.4606 5.52661 11.1775 5.72454 10.9958L6.30755 10.4606C6.37953 10.3945 6.41411 10.2976 6.40562 10.2003C6.39699 10.1013 6.39226 10.0011 6.39226 9.89967C6.39226 9.89967 6.39226 9.89967 6.39226 9.89967ZM9.89723 11.8132C10.9548 11.8132 11.8121 10.9567 11.8121 9.89985C11.8121 8.84316 10.9549 7.98647 9.89723 7.98647C8.8398 7.98647 7.98269 8.84307 7.98269 9.89985C7.98283 10.9566 8.83982 11.8132 9.89723 11.8132Z" fill="#100FA8"/>
</svg>
