<svg width="27" height="26" viewBox="0 0 27 26" fill="none" xmlns="http://www.w3.org/2000/svg">
<path fill-rule="evenodd" clip-rule="evenodd" d="M0.859945 11.3611H11.6771L12.287 10.7981V0.813052L11.6771 0.25H0.859945L0.25 0.813052V10.7981L0.859945 11.3611ZM11.0671 10.2348H1.47049V1.376H11.0671V10.2348ZM14.7488 11.3611H25.566L26.1759 10.7981V0.813052L25.566 0.25H14.7488L14.1389 0.813052V10.7981L14.7488 11.3611ZM24.9554 10.2348H15.3588V1.376H24.9554V10.2348ZM11.6771 25.25H0.859945L0.25 24.6401V13.8229L0.859945 13.213H11.6771L12.287 13.8229V24.6401L11.6771 25.25ZM1.47049 24.0299H11.0671V14.4333H1.47049V24.0299ZM14.7488 25.25H25.566L26.1759 24.6401V13.8229L25.566 13.213H14.7488L14.1389 13.8229V24.6401L14.7488 25.25ZM24.9554 24.0299H15.3588V14.4333H24.9554V24.0299Z" fill="#000033"/>
<path d="M11.6771 11.3611V11.6111H11.7748L11.8467 11.5448L11.6771 11.3611ZM0.859945 11.3611L0.690371 11.5448L0.762196 11.6111H0.859945V11.3611ZM12.287 10.7981L12.4566 10.9818L12.537 10.9075V10.7981H12.287ZM12.287 0.813052H12.537V0.703597L12.4566 0.629355L12.287 0.813052ZM11.6771 0.25L11.8467 0.0663028L11.7748 0H11.6771V0.25ZM0.859945 0.25V0H0.762196L0.690371 0.066303L0.859945 0.25ZM0.25 0.813052L0.0804258 0.629355L0 0.703597V0.813052H0.25ZM0.25 10.7981H0V10.9075L0.0804258 10.9818L0.25 10.7981ZM1.47049 10.2348H1.22049V10.4848H1.47049V10.2348ZM11.0671 10.2348V10.4848H11.3171V10.2348H11.0671ZM1.47049 1.376V1.126H1.22049V1.376H1.47049ZM11.0671 1.376H11.3171V1.126H11.0671V1.376ZM25.566 11.3611V11.6111H25.6637L25.7356 11.5448L25.566 11.3611ZM14.7488 11.3611L14.5793 11.5448L14.6511 11.6111H14.7488V11.3611ZM26.1759 10.7981L26.3455 10.9818L26.4259 10.9075V10.7981H26.1759ZM26.1759 0.813052H26.4259V0.703597L26.3455 0.629355L26.1759 0.813052ZM25.566 0.25L25.7356 0.0663032L25.6637 0H25.566V0.25ZM14.7488 0.25V0H14.6511L14.5793 0.0663029L14.7488 0.25ZM14.1389 0.813052L13.9693 0.629355L13.8889 0.703597V0.813052H14.1389ZM14.1389 10.7981H13.8889V10.9075L13.9693 10.9818L14.1389 10.7981ZM15.3588 10.2348H15.1088V10.4848H15.3588V10.2348ZM24.9554 10.2348V10.4848H25.2054V10.2348H24.9554ZM15.3588 1.376V1.126H15.1088V1.376H15.3588ZM24.9554 1.376H25.2054V1.126H24.9554V1.376ZM0.859945 25.25L0.683168 25.4268L0.756392 25.5H0.859945V25.25ZM11.6771 25.25V25.5H11.7806L11.8539 25.4268L11.6771 25.25ZM0.25 24.6401H0V24.7436L0.0732233 24.8168L0.25 24.6401ZM0.25 13.8229L0.0732233 13.6461L0 13.7194V13.8229H0.25ZM0.859945 13.213V12.963H0.756392L0.683168 13.0362L0.859945 13.213ZM11.6771 13.213L11.8539 13.0362L11.7806 12.963H11.6771V13.213ZM12.287 13.8229H12.537V13.7194L12.4638 13.6461L12.287 13.8229ZM12.287 24.6401L12.4638 24.8168L12.537 24.7436V24.6401H12.287ZM11.0671 24.0299V24.2799H11.3171V24.0299H11.0671ZM1.47049 24.0299H1.22049V24.2799H1.47049V24.0299ZM11.0671 14.4333H11.3171V14.1833H11.0671V14.4333ZM1.47049 14.4333V14.1833H1.22049V14.4333H1.47049ZM25.566 25.25V25.5H25.6695L25.7428 25.4268L25.566 25.25ZM14.7488 25.25L14.5721 25.4268L14.6453 25.5H14.7488V25.25ZM26.1759 24.6401L26.3527 24.8168L26.4259 24.7436V24.6401H26.1759ZM26.1759 13.8229H26.4259V13.7194L26.3527 13.6461L26.1759 13.8229ZM25.566 13.213L25.7428 13.0362L25.6695 12.963H25.566V13.213ZM14.7488 13.213V12.963H14.6453L14.5721 13.0362L14.7488 13.213ZM14.1389 13.8229L13.9621 13.6461L13.8889 13.7194V13.8229H14.1389ZM14.1389 24.6401H13.8889V24.7436L13.9621 24.8168L14.1389 24.6401ZM15.3588 24.0299H15.1088V24.2799H15.3588V24.0299ZM24.9554 24.0299V24.2799H25.2054V24.0299H24.9554ZM15.3588 14.4333V14.1833H15.1088V14.4333H15.3588ZM24.9554 14.4333H25.2054V14.1833H24.9554V14.4333ZM11.6771 11.1111H0.859945V11.6111H11.6771V11.1111ZM12.1175 10.6144L11.5075 11.1774L11.8467 11.5448L12.4566 10.9818L12.1175 10.6144ZM12.037 0.813052V10.7981H12.537V0.813052H12.037ZM11.5075 0.433697L12.1175 0.996749L12.4566 0.629355L11.8467 0.0663028L11.5075 0.433697ZM0.859945 0.5H11.6771V0H0.859945V0.5ZM0.419574 0.996749L1.02952 0.433697L0.690371 0.066303L0.0804258 0.629355L0.419574 0.996749ZM0.5 10.7981V0.813052H0V10.7981H0.5ZM1.02952 11.1774L0.419574 10.6144L0.0804258 10.9818L0.690371 11.5448L1.02952 11.1774ZM1.47049 10.4848H11.0671V9.98481H1.47049V10.4848ZM1.22049 1.376V10.2348H1.72049V1.376H1.22049ZM11.0671 1.126H1.47049V1.626H11.0671V1.126ZM11.3171 10.2348V1.376H10.8171V10.2348H11.3171ZM25.566 11.1111H14.7488V11.6111H25.566V11.1111ZM26.0064 10.6144L25.3964 11.1774L25.7356 11.5448L26.3455 10.9818L26.0064 10.6144ZM25.9259 0.813052V10.7981H26.4259V0.813052H25.9259ZM25.3964 0.433697L26.0064 0.996749L26.3455 0.629355L25.7356 0.0663032L25.3964 0.433697ZM14.7488 0.5H25.566V0H14.7488V0.5ZM14.3085 0.996749L14.9184 0.433697L14.5793 0.0663029L13.9693 0.629355L14.3085 0.996749ZM14.3889 10.7981V0.813052H13.8889V10.7981H14.3889ZM14.9184 11.1774L14.3085 10.6144L13.9693 10.9818L14.5793 11.5448L14.9184 11.1774ZM15.3588 10.4848H24.9554V9.98481H15.3588V10.4848ZM15.1088 1.376V10.2348H15.6088V1.376H15.1088ZM24.9554 1.126H15.3588V1.626H24.9554V1.126ZM25.2054 10.2348V1.376H24.7054V10.2348H25.2054ZM0.859945 25.5H11.6771V25H0.859945V25.5ZM0.0732233 24.8168L0.683168 25.4268L1.03672 25.0732L0.426777 24.4633L0.0732233 24.8168ZM0 13.8229V24.6401H0.5V13.8229H0ZM0.683168 13.0362L0.0732233 13.6461L0.426777 13.9997L1.03672 13.3897L0.683168 13.0362ZM11.6771 12.963H0.859945V13.463H11.6771V12.963ZM12.4638 13.6461L11.8539 13.0362L11.5003 13.3897L12.1103 13.9997L12.4638 13.6461ZM12.537 24.6401V13.8229H12.037V24.6401H12.537ZM11.8539 25.4268L12.4638 24.8168L12.1103 24.4633L11.5003 25.0732L11.8539 25.4268ZM11.0671 23.7799H1.47049V24.2799H11.0671V23.7799ZM10.8171 14.4333V24.0299H11.3171V14.4333H10.8171ZM1.47049 14.6833H11.0671V14.1833H1.47049V14.6833ZM1.72049 24.0299V14.4333H1.22049V24.0299H1.72049ZM25.566 25H14.7488V25.5H25.566V25ZM25.9991 24.4633L25.3892 25.0732L25.7428 25.4268L26.3527 24.8168L25.9991 24.4633ZM25.9259 13.8229V24.6401H26.4259V13.8229H25.9259ZM25.3892 13.3897L25.9991 13.9997L26.3527 13.6461L25.7428 13.0362L25.3892 13.3897ZM14.7488 13.463H25.566V12.963H14.7488V13.463ZM14.3157 13.9997L14.9256 13.3897L14.5721 13.0362L13.9621 13.6461L14.3157 13.9997ZM14.3889 24.6401V13.8229H13.8889V24.6401H14.3889ZM14.9256 25.0732L14.3157 24.4633L13.9621 24.8168L14.5721 25.4268L14.9256 25.0732ZM15.3588 24.2799H24.9554V23.7799H15.3588V24.2799ZM15.1088 14.4333V24.0299H15.6088V14.4333H15.1088ZM24.9554 14.1833H15.3588V14.6833H24.9554V14.1833ZM25.2054 24.0299V14.4333H24.7054V24.0299H25.2054Z" fill="#000033"/>
</svg>
